<svg width="22" height="21" viewBox="0 0 22 21" fill="none" xmlns="http://www.w3.org/2000/svg">
<path d="M21.25 10.5C21.25 9.07 20.37 7.83 19.06 7.16C19.52 5.77 19.26 4.26 18.25 3.25C17.24 2.24 15.73 1.98 14.34 2.44C13.68 1.13 12.43 0.25 11 0.25C9.57 0.25 8.33 1.13 7.67 2.44C6.27 1.98 4.76 2.24 3.75 3.25C2.74 4.26 2.49 5.77 2.95 7.16C1.64 7.83 0.75 9.07 0.75 10.5C0.75 11.93 1.64 13.17 2.95 13.84C2.49 15.23 2.74 16.74 3.75 17.75C4.76 18.76 6.27 19.01 7.66 18.56C8.33 19.87 9.57 20.75 11 20.75C12.43 20.75 13.68 19.87 14.34 18.56C15.73 19.01 17.24 18.76 18.25 17.75C19.26 16.74 19.52 15.23 19.06 13.84C20.37 13.17 21.25 11.93 21.25 10.5ZM9.54 14.7L5.8 10.96L7.21 9.54L9.47 11.8L14.27 6.57L15.74 7.93L9.54 14.7Z" fill="#1D9BF0"/>
</svg>
