<svg width="22" height="22" viewBox="0 0 22 22" fill="none" xmlns="http://www.w3.org/2000/svg">
<path fill-rule="evenodd" clip-rule="evenodd" d="M7.5605 5.79158e-06L7.5625 0L17.1895 2.89579e-06C17.9177 0.00212038 18.6154 0.29232 19.1303 0.807212C19.6452 1.32211 19.9354 2.01984 19.9375 2.74801L19.9375 2.75L19.9375 18.5625C19.9375 18.8268 19.786 19.0677 19.5478 19.1822C19.3096 19.2966 19.0269 19.2644 18.8205 19.0994L15.383 16.3494L16.242 15.2757L18.5625 17.1321V2.75118C18.5612 2.3866 18.4158 2.0373 18.158 1.77948C17.9002 1.52169 17.551 1.3763 17.1864 1.375H7.5636C7.19905 1.3763 6.84978 1.52169 6.59198 1.77948C6.33418 2.03728 6.1888 2.38655 6.1875 2.7511V3.4375H4.8125V2.74801C4.81461 2.01984 5.10482 1.32211 5.61971 0.807212C6.1346 0.29232 6.83234 0.00212038 7.5605 5.79158e-06Z" fill="#D6E8FF"/>
<path fill-rule="evenodd" clip-rule="evenodd" d="M4.8105 3.43751L4.8125 3.4375L13.75 3.4375V4.125L13.752 3.43751C14.4802 3.43962 15.1779 3.72982 15.6928 4.24471C16.2077 4.7596 16.4979 5.45734 16.5 6.18551L16.5 6.1875L16.5 21.3125C16.5 21.5799 16.3449 21.823 16.1025 21.9358C15.8601 22.0486 15.5742 22.0106 15.3697 21.8384L9.28125 16.7113L3.19284 21.8384C2.9883 22.0106 2.70245 22.0486 2.46 21.9358C2.21755 21.823 2.0625 21.5799 2.0625 21.3125V6.18551C2.06461 5.45734 2.35482 4.7596 2.86971 4.24471C3.3846 3.72982 4.08234 3.43962 4.8105 3.43751ZM13.7489 4.8125H4.8136C4.44905 4.8138 4.09978 4.95919 3.84198 5.21698C3.58418 5.47478 3.4388 5.82405 3.4375 6.1886V19.8348L8.83841 15.2866C9.09431 15.0711 9.46819 15.0711 9.72409 15.2866L15.125 19.8348V6.18868C15.1237 5.8241 14.9783 5.4748 14.7205 5.21698C14.4627 4.95919 14.1135 4.8138 13.7489 4.8125Z" fill="#D6E8FF"/>
</svg>
