<svg width="22" height="22" viewBox="0 0 22 22" fill="none" xmlns="http://www.w3.org/2000/svg">
<path d="M17.1875 0H7.5625C6.95281 0.000502957 6.3605 0.203259 5.8784 0.576498C5.3963 0.949737 5.05165 1.47237 4.89844 2.0625H14.6953C15.5386 2.0625 16.3474 2.3975 16.9437 2.99381C17.54 3.59012 17.875 4.39888 17.875 5.24219V18.3429L18.8203 19.0992C18.9375 19.193 19.0822 19.2459 19.2322 19.2497C19.3823 19.2536 19.5295 19.2083 19.6513 19.1207C19.7414 19.0542 19.8143 18.9672 19.8641 18.8669C19.9138 18.7666 19.939 18.656 19.9375 18.544V2.75C19.9375 2.02065 19.6478 1.32118 19.132 0.805456C18.6163 0.289731 17.9168 0 17.1875 0V0Z" fill="#EEEEEE"/>
<path d="M13.75 3.4375H4.81252C4.08317 3.4375 3.3837 3.72723 2.86798 4.24296C2.35225 4.75868 2.06252 5.45815 2.06252 6.1875V21.2962C2.06083 21.4076 2.08566 21.5179 2.13497 21.6178C2.18428 21.7178 2.25665 21.8046 2.34611 21.8711C2.4704 21.9613 2.62133 22.0074 2.77483 22.0018C2.92833 21.9963 3.07556 21.9395 3.19303 21.8406L9.28127 16.7114L15.3695 21.8384C15.4862 21.9368 15.6323 21.9935 15.7848 21.9996C15.9373 22.0058 16.0875 21.961 16.2117 21.8724C16.3023 21.8061 16.3757 21.719 16.4259 21.6186C16.476 21.5181 16.5014 21.4071 16.5 21.2949V6.1875C16.5 5.45815 16.2103 4.75868 15.6946 4.24296C15.1788 3.72723 14.4794 3.4375 13.75 3.4375Z" fill="#EEEEEE"/>
</svg>
