<svg width="12" height="19" viewBox="0 0 12 19" fill="none" xmlns="http://www.w3.org/2000/svg">
<path fill-rule="evenodd" clip-rule="evenodd" d="M3.19062 0.73549C3.67111 0.534758 4.18666 0.431396 4.70738 0.431396C5.22811 0.431396 5.74366 0.534758 6.22414 0.73549C6.70462 0.936222 7.14048 1.23033 7.50645 1.60077C7.87242 1.97121 8.16122 2.4106 8.35611 2.89348C8.55043 3.37496 8.64753 3.89012 8.64183 4.40927L8.63573 13.2548C8.62484 13.9448 8.34303 14.6027 7.85129 15.0868C7.35955 15.5708 6.69722 15.8421 6.00723 15.8421C5.31723 15.8421 4.6549 15.5708 4.16316 15.0868C3.67142 14.6027 3.3897 13.9448 3.3788 13.2548L3.37862 13.243L3.37871 6.50003C3.37871 6.08582 3.7145 5.75003 4.12871 5.75003C4.54292 5.75003 4.87871 6.08582 4.87871 6.50003V13.2363C4.88471 13.5307 5.00549 13.8111 5.21541 14.0178C5.42655 14.2256 5.71095 14.3421 6.00723 14.3421C6.3035 14.3421 6.5879 14.2256 6.79904 14.0178C7.00901 13.8111 7.1298 13.5305 7.13575 13.2361L7.14184 4.39562C7.14575 4.07343 7.08572 3.75367 6.96512 3.45487C6.84453 3.15608 6.66583 2.88419 6.43938 2.65497C6.21293 2.42576 5.94323 2.24377 5.64592 2.11956C5.3486 1.99535 5.0296 1.9314 4.70738 1.9314C4.38517 1.9314 4.06616 1.99535 3.76885 2.11956C3.47154 2.24377 3.20184 2.42576 2.97539 2.65497C2.74893 2.88419 2.57023 3.15608 2.44964 3.45487C2.32905 3.75367 2.26897 4.07343 2.27287 4.39562L2.27298 4.40472L2.27293 13.3134C2.26578 13.8073 2.35681 14.2977 2.54089 14.7561C2.72496 15.2145 2.99832 15.6318 3.34508 15.9836C3.69184 16.3354 4.10508 16.6148 4.56077 16.8055C5.01646 16.9961 5.50551 17.0943 5.99949 17.0943C6.49347 17.0943 6.98252 16.9961 7.43821 16.8055C7.8939 16.6148 8.30714 16.3354 8.6539 15.9836C9.00066 15.6318 9.27402 15.2145 9.4581 14.7561C9.64217 14.2977 9.73328 13.8073 9.72613 13.3134L9.72597 13.3025L9.72605 4.98785C9.72605 4.57363 10.0618 4.23785 10.4761 4.23785C10.8903 4.23785 11.2261 4.57363 11.2261 4.98785V13.2974C11.2353 13.9882 11.1075 14.674 10.8501 15.3151C10.5919 15.958 10.2085 16.5431 9.72221 17.0365C9.23589 17.53 8.65634 17.9218 8.01725 18.1892C7.37816 18.4566 6.69228 18.5943 5.99949 18.5943C5.3067 18.5943 4.62083 18.4566 3.98174 18.1892C3.34265 17.9218 2.7631 17.53 2.27678 17.0365C1.79046 16.5431 1.40708 15.958 1.14892 15.3151C0.891463 14.6739 0.763677 13.9881 0.77293 13.2973V4.40903C0.767264 3.88996 0.864364 3.37489 1.05866 2.89348C1.25354 2.4106 1.54234 1.97121 1.90831 1.60077C2.27428 1.23033 2.71014 0.936222 3.19062 0.73549Z" fill="#2B6CB0"/>
</svg>
