<svg width="22" height="22" viewBox="0 0 22 22" fill="none" xmlns="http://www.w3.org/2000/svg">
<path d="M10.9984 1.5C7.18124 1.5 3.88827 3.75069 2.37746 7H4.75C5.16421 7 5.5 7.33579 5.5 7.75C5.5 8.16421 5.16421 8.5 4.75 8.5H1C0.447715 8.5 0 8.05228 0 7.5V3.75C0 3.33579 0.335786 3 0.75 3C1.16421 3 1.5 3.33579 1.5 3.75V5.44653C3.40913 2.18909 6.94746 0 10.9984 0C17.0743 0 22 4.92476 22 11C22 17.0752 17.0743 22 10.9984 22C5.01438 22 0.146212 17.2232 0.000230271 11.2746C-0.00993178 10.8606 0.317516 10.5166 0.731604 10.5065C1.14569 10.4963 1.48962 10.8238 1.49978 11.2378C1.62583 16.3743 5.83027 20.5 10.9984 20.5C16.2461 20.5 20.5 16.2466 20.5 11C20.5 5.7534 16.2461 1.5 10.9984 1.5Z" fill="#D6E8FF"/>
<path d="M11.5 6.25C11.5 5.83579 11.1642 5.5 10.75 5.5C10.3358 5.5 10 5.83579 10 6.25V11.75C10 12.0191 10.1442 12.2677 10.3779 12.4012L13.8779 14.4012C14.2375 14.6067 14.6957 14.4817 14.9012 14.1221C15.1067 13.7625 14.9817 13.3043 14.6221 13.0988L11.5 11.3148V6.25Z" fill="#D6E8FF"/>
</svg>
