<svg width="22" height="22" viewBox="0 0 22 22" fill="none" xmlns="http://www.w3.org/2000/svg">
<path d="M5.5 1.375C8.53875 1.375 11 3.78813 11 6.765C11 3.78813 13.4612 1.375 16.5 1.375C19.5388 1.375 22 3.78813 22 6.765C22 11.2516 17.5533 12.8343 11.539 19.976C11.4728 20.0544 11.3903 20.1175 11.2972 20.1607C11.2041 20.204 11.1026 20.2264 11 20.2264C10.8974 20.2264 10.7959 20.204 10.7028 20.1607C10.6097 20.1175 10.5272 20.0544 10.461 19.976C4.44675 12.8343 0 11.2516 0 6.765C0 3.78813 2.46125 1.375 5.5 1.375Z" fill="#EEEEEE"/>
</svg>
