<svg width="22" height="22" viewBox="0 0 22 22" fill="none" xmlns="http://www.w3.org/2000/svg">
<path d="M11 8.5745L9.77075 6.11463C9.4655 5.5055 8.93613 4.62963 8.18675 3.9215C7.44975 3.22438 6.567 2.75 5.5 2.75C3.1955 2.75 1.375 4.57325 1.375 6.765C1.375 8.43013 2.13675 9.60575 3.9435 11.3988C4.40688 11.858 4.93487 12.3544 5.51925 12.9016C7.04275 14.3316 8.9375 16.1109 11 18.4896C13.0625 16.1109 14.9573 14.3316 16.4808 12.9016C17.0651 12.3544 17.5945 11.8566 18.0565 11.3988C19.8632 9.60575 20.625 8.43013 20.625 6.765C20.625 4.57325 18.8045 2.75 16.5 2.75C15.4316 2.75 14.5502 3.22438 13.8132 3.9215C13.0639 4.62963 12.5345 5.5055 12.2293 6.11463L11 8.5745ZM11.539 19.976C11.4728 20.0544 11.3903 20.1175 11.2972 20.1607C11.2041 20.204 11.1026 20.2264 11 20.2264C10.8974 20.2264 10.7959 20.204 10.7028 20.1607C10.6097 20.1175 10.5272 20.0544 10.461 19.976C8.25962 17.3608 6.26725 15.4908 4.62688 13.9521C1.7875 11.286 0 9.60988 0 6.765C0 3.78813 2.46125 1.375 5.5 1.375C7.7 1.375 9.23862 2.81875 10.1805 4.136C10.538 4.63788 10.8103 5.1205 11 5.5C11.2379 5.02504 11.5118 4.56903 11.8195 4.136C12.7614 2.81737 14.3 1.375 16.5 1.375C19.5388 1.375 22 3.78813 22 6.765C22 9.60988 20.2125 11.286 17.3731 13.9521C15.7328 15.4921 13.7404 17.3621 11.539 19.9746V19.976Z" fill="#EEEEEE"/>
</svg>
