<svg width="474" height="123" viewBox="0 0 474 123" fill="none" xmlns="http://www.w3.org/2000/svg">
<path d="M0.240001 92V2.39999H33.392C42.0533 2.39999 49.7333 4.17066 56.432 7.712C63.1307 11.2533 68.3787 16.3733 72.176 23.072C76.016 29.728 77.936 37.7707 77.936 47.2C77.936 56.6293 76.016 64.6933 72.176 71.392C68.3787 78.048 63.1307 83.1467 56.432 86.688C49.7333 90.2293 42.0533 92 33.392 92H0.240001ZM12.4 80.992H33.392C40.2187 80.992 45.936 79.584 50.544 76.768C55.1947 73.9093 58.6933 69.9413 61.04 64.864C63.4293 59.7867 64.624 53.8987 64.624 47.2C64.624 40.5013 63.4293 34.6133 61.04 29.536C58.6933 24.4587 55.1947 20.512 50.544 17.696C45.936 14.8373 40.2187 13.408 33.392 13.408H12.4V80.992ZM120.138 93.28C112.757 93.28 106.549 91.7653 101.514 88.736C96.4793 85.7067 92.6607 81.696 90.058 76.704C87.498 71.6693 86.218 66.144 86.218 60.128C86.218 54.2827 87.4127 48.928 89.802 44.064C92.234 39.2 95.7327 35.3173 100.298 32.416C104.906 29.472 110.453 28 116.938 28C122.143 28 126.773 29.0453 130.826 31.136C134.922 33.184 138.122 36.192 140.426 40.16C142.773 44.0853 143.946 48.864 143.946 54.496C143.946 55.392 143.903 56.3733 143.818 57.44C143.775 58.464 143.647 59.5307 143.434 60.64H97.994C98.5487 66.4427 99.9353 70.9653 102.154 74.208C104.373 77.4507 107.167 79.7333 110.538 81.056C113.909 82.3787 117.578 83.04 121.546 83.04C124.447 83.04 127.477 82.7413 130.634 82.144C133.791 81.5467 136.778 80.608 139.594 79.328L141.13 88.416C138.698 89.4827 135.733 90.5707 132.234 91.68C128.735 92.7467 124.703 93.28 120.138 93.28ZM99.018 52.704H132.042C132.042 49.76 131.487 47.2 130.378 45.024C129.269 42.848 127.583 41.184 125.322 40.032C123.061 38.8373 120.181 38.24 116.682 38.24C111.562 38.24 107.615 39.52 104.842 42.08C102.111 44.5973 100.17 48.1387 99.018 52.704ZM172.338 92L148.402 29.28H161.202L178.738 79.328L196.146 29.28H209.074L185.266 92H172.338Z" fill="white"/>
<path d="M246.09 93.792C242.378 93.792 238.666 93.5147 234.954 92.96C231.242 92.4053 227.807 91.7013 224.65 90.848C221.493 89.952 218.869 89.0133 216.778 88.032L218.442 75.104C220.746 76.2133 223.519 77.3653 226.762 78.56C230.047 79.7547 233.589 80.7573 237.386 81.568C241.183 82.3787 245.023 82.784 248.906 82.784C254.666 82.784 259.231 81.7387 262.602 79.648C266.015 77.5147 267.722 74.208 267.722 69.728C267.722 66.3573 266.869 63.6053 265.162 61.472C263.455 59.296 260.874 57.44 257.418 55.904C254.005 54.368 249.717 52.832 244.554 51.296C239.647 49.8453 235.125 48.1387 230.986 46.176C226.847 44.1707 223.519 41.504 221.002 38.176C218.527 34.8053 217.29 30.3467 217.29 24.8C217.29 20.064 218.506 15.8827 220.938 12.256C223.413 8.58666 227.018 5.728 231.754 3.67999C236.533 1.63199 242.378 0.607994 249.29 0.607994C255.178 0.607994 260.575 1.24799 265.482 2.52799C270.431 3.808 274.506 5.216 277.706 6.752L276.426 19.68C271.562 16.7787 266.911 14.7093 262.474 13.472C258.079 12.2347 253.514 11.616 248.778 11.616C243.53 11.616 239.178 12.5973 235.722 14.56C232.309 16.5227 230.602 19.7227 230.602 24.16C230.602 27.1467 231.37 29.6 232.906 31.52C234.442 33.3973 236.725 35.0187 239.754 36.384C242.783 37.7067 246.559 39.0507 251.082 40.416C257.311 42.2933 262.666 44.448 267.146 46.88C271.626 49.2693 275.061 52.2347 277.45 55.776C279.839 59.2747 281.034 63.6267 281.034 68.832C281.034 72.672 280.309 76.128 278.858 79.2C277.407 82.272 275.231 84.896 272.33 87.072C269.429 89.248 265.781 90.912 261.386 92.064C257.034 93.216 251.935 93.792 246.09 93.792ZM295.544 122.976L310.008 89.184L283.896 29.28H296.696L316.28 75.872L333.944 29.28H346.744L308.344 122.976H295.544ZM355.433 92V29.28H364.393L366.697 41.312L362.217 39.392C366.441 34.6987 370.558 31.6267 374.569 30.176C378.622 28.7253 382.569 28 386.409 28C395.582 28 402.132 30.6453 406.057 35.936C410.025 41.2267 412.009 48.3947 412.009 57.44V92H400.489V57.44C400.489 50.784 399.252 45.92 396.777 42.848C394.302 39.776 390.078 38.24 384.105 38.24C379.881 38.24 375.998 39.1787 372.457 41.056C368.958 42.8907 366.654 45.8347 365.545 49.888L366.953 42.848V92H355.433ZM455.733 93.28C448.65 93.28 442.698 91.8507 437.877 88.992C433.098 86.0907 429.472 82.208 426.997 77.344C424.565 72.4373 423.349 66.9973 423.349 61.024C423.349 54.7947 424.522 49.184 426.869 44.192C429.258 39.2 432.906 35.2533 437.813 32.352C442.72 29.4507 448.992 28 456.629 28C459.914 28 463.008 28.3413 465.909 29.024C468.853 29.664 471.477 30.56 473.781 31.712L471.989 41.824C469.642 40.7147 467.146 39.84 464.501 39.2C461.898 38.56 459.189 38.24 456.373 38.24C449.461 38.24 444.192 40.2027 440.565 44.128C436.938 48.0533 435.125 53.5147 435.125 60.512C435.125 67.3387 436.853 72.8213 440.309 76.96C443.765 81.0987 449.034 83.168 456.117 83.168C459.018 83.168 461.792 82.8267 464.437 82.144C467.125 81.4613 469.685 80.5227 472.117 79.328L473.653 88.544C471.946 89.7387 469.45 90.8267 466.165 91.808C462.88 92.7893 459.402 93.28 455.733 93.28Z" fill="#75AFFF"/>
</svg>
